<svg width="157" height="157" viewBox="0 0 157 157" fill="none" xmlns="http://www.w3.org/2000/svg">
<g filter="url(#filter0_d_4_110)">
<circle cx="78.5" cy="63.5" r="48.5" fill="white"/>
<path d="M76.9756 55.4317H70.5006C69.8163 55.4315 69.1486 55.6418 68.588 56.0342C68.0275 56.4266 67.6013 56.982 67.3672 57.625L61.1006 74.8617C60.8789 75.47 61.0306 76.1517 61.4872 76.61L61.9756 77.0983L72.6789 66.395C72.6772 66.3517 72.6656 66.3083 72.6656 66.265C72.6656 65.7705 72.8122 65.2872 73.0869 64.8761C73.3616 64.465 73.7521 64.1445 74.2089 63.9553C74.6657 63.7661 75.1683 63.7166 75.6533 63.813C76.1383 63.9095 76.5837 64.1476 76.9333 64.4972C77.283 64.8469 77.5211 65.2923 77.6175 65.7773C77.714 66.2622 77.6645 66.7649 77.4753 67.2217C77.2861 67.6785 76.9656 68.069 76.5545 68.3437C76.1434 68.6184 75.66 68.765 75.1656 68.765C75.1222 68.765 75.0789 68.7533 75.0356 68.7517L64.3322 79.455L64.8206 79.9433C65.0447 80.168 65.3284 80.3238 65.6382 80.3923C65.948 80.4608 66.271 80.4392 66.5689 80.33L83.8056 74.0617C84.4486 73.8277 85.004 73.4014 85.3963 72.8409C85.7887 72.2803 85.9991 71.6126 85.9989 70.9283V64.4533L89.3306 61.1233L80.3072 52.1L76.9756 55.4317V55.4317ZM90.8972 58.8683L82.5639 50.535L86.0972 47L94.4306 55.3333L90.8972 58.8683Z" fill="#4C40F7"/>
</g>
<defs>
<filter id="filter0_d_4_110" x="0" y="0" width="157" height="157" filterUnits="userSpaceOnUse" color-interpolation-filters="sRGB">
<feFlood flood-opacity="0" result="BackgroundImageFix"/>
<feColorMatrix in="SourceAlpha" type="matrix" values="0 0 0 0 0 0 0 0 0 0 0 0 0 0 0 0 0 0 127 0" result="hardAlpha"/>
<feOffset dy="15"/>
<feGaussianBlur stdDeviation="15"/>
<feComposite in2="hardAlpha" operator="out"/>
<feColorMatrix type="matrix" values="0 0 0 0 0.214421 0 0 0 0 0.177604 0 0 0 0 0.739062 0 0 0 1 0"/>
<feBlend mode="normal" in2="BackgroundImageFix" result="effect1_dropShadow_4_110"/>
<feBlend mode="normal" in="SourceGraphic" in2="effect1_dropShadow_4_110" result="shape"/>
</filter>
</defs>
</svg>
