<svg width="157" height="157" viewBox="0 0 157 157" fill="none" xmlns="http://www.w3.org/2000/svg">
<g filter="url(#filter0_d_4_76)">
<circle cx="78.5" cy="63.5" r="48.5" fill="#FF6800"/>
<rect width="40" height="40" transform="translate(58.5 44)" fill="#FF6800"/>
<path d="M68.5 79H63.5C63.058 79 62.6341 78.8244 62.3215 78.5118C62.009 78.1993 61.8334 77.7754 61.8334 77.3333V64C61.8334 63.558 62.009 63.134 62.3215 62.8215C62.6341 62.5089 63.058 62.3333 63.5 62.3333H68.5C68.9421 62.3333 69.366 62.5089 69.6786 62.8215C69.9911 63.134 70.1667 63.558 70.1667 64V77.3333C70.1667 77.7754 69.9911 78.1993 69.6786 78.5118C69.366 78.8244 68.9421 79 68.5 79ZM80.1667 79H75.1667C74.7247 79 74.3008 78.8244 73.9882 78.5118C73.6756 78.1993 73.5 77.7754 73.5 77.3333V49C73.5 48.558 73.6756 48.134 73.9882 47.8215C74.3008 47.5089 74.7247 47.3333 75.1667 47.3333H80.1667C80.6087 47.3333 81.0327 47.5089 81.3452 47.8215C81.6578 48.134 81.8334 48.558 81.8334 49V77.3333C81.8334 77.7754 81.6578 78.1993 81.3452 78.5118C81.0327 78.8244 80.6087 79 80.1667 79ZM91.8334 79H86.8334C86.3913 79 85.9674 78.8244 85.6549 78.5118C85.3423 78.1993 85.1667 77.7754 85.1667 77.3333V59C85.1667 58.558 85.3423 58.1341 85.6549 57.8215C85.9674 57.5089 86.3913 57.3333 86.8334 57.3333H91.8334C92.2754 57.3333 92.6993 57.5089 93.0119 57.8215C93.3244 58.1341 93.5 58.558 93.5 59V77.3333C93.5 77.7754 93.3244 78.1993 93.0119 78.5118C92.6993 78.8244 92.2754 79 91.8334 79Z" fill="white"/>
</g>
<defs>
<filter id="filter0_d_4_76" x="0" y="0" width="157" height="157" filterUnits="userSpaceOnUse" color-interpolation-filters="sRGB">
<feFlood flood-opacity="0" result="BackgroundImageFix"/>
<feColorMatrix in="SourceAlpha" type="matrix" values="0 0 0 0 0 0 0 0 0 0 0 0 0 0 0 0 0 0 127 0" result="hardAlpha"/>
<feOffset dy="15"/>
<feGaussianBlur stdDeviation="15"/>
<feComposite in2="hardAlpha" operator="out"/>
<feColorMatrix type="matrix" values="0 0 0 0 1 0 0 0 0 0.407843 0 0 0 0 0 0 0 0 0.4 0"/>
<feBlend mode="normal" in2="BackgroundImageFix" result="effect1_dropShadow_4_76"/>
<feBlend mode="normal" in="SourceGraphic" in2="effect1_dropShadow_4_76" result="shape"/>
</filter>
</defs>
</svg>
