<svg width="157" height="157" viewBox="0 0 157 157" fill="none" xmlns="http://www.w3.org/2000/svg">
<g filter="url(#filter0_d_4_136)">
<circle cx="78.5" cy="63.5" r="48.5" fill="white"/>
<path d="M68.6667 79.6667H63.6667C63.2246 79.6667 62.8007 79.4911 62.4882 79.1785C62.1756 78.866 62 78.442 62 78V64.6667C62 64.2246 62.1756 63.8007 62.4882 63.4882C62.8007 63.1756 63.2246 63 63.6667 63H68.6667C69.1087 63 69.5326 63.1756 69.8452 63.4882C70.1577 63.8007 70.3333 64.2246 70.3333 64.6667V78C70.3333 78.442 70.1577 78.866 69.8452 79.1785C69.5326 79.4911 69.1087 79.6667 68.6667 79.6667ZM80.3333 79.6667H75.3333C74.8913 79.6667 74.4674 79.4911 74.1548 79.1785C73.8423 78.866 73.6667 78.442 73.6667 78V49.6667C73.6667 49.2246 73.8423 48.8007 74.1548 48.4882C74.4674 48.1756 74.8913 48 75.3333 48H80.3333C80.7754 48 81.1993 48.1756 81.5118 48.4882C81.8244 48.8007 82 49.2246 82 49.6667V78C82 78.442 81.8244 78.866 81.5118 79.1785C81.1993 79.4911 80.7754 79.6667 80.3333 79.6667ZM92 79.6667H87C86.558 79.6667 86.134 79.4911 85.8215 79.1785C85.5089 78.866 85.3333 78.442 85.3333 78V59.6667C85.3333 59.2246 85.5089 58.8007 85.8215 58.4882C86.134 58.1756 86.558 58 87 58H92C92.442 58 92.866 58.1756 93.1785 58.4882C93.4911 58.8007 93.6667 59.2246 93.6667 59.6667V78C93.6667 78.442 93.4911 78.866 93.1785 79.1785C92.866 79.4911 92.442 79.6667 92 79.6667Z" fill="#4C40F7"/>
</g>
<defs>
<filter id="filter0_d_4_136" x="0" y="0" width="157" height="157" filterUnits="userSpaceOnUse" color-interpolation-filters="sRGB">
<feFlood flood-opacity="0" result="BackgroundImageFix"/>
<feColorMatrix in="SourceAlpha" type="matrix" values="0 0 0 0 0 0 0 0 0 0 0 0 0 0 0 0 0 0 127 0" result="hardAlpha"/>
<feOffset dy="15"/>
<feGaussianBlur stdDeviation="15"/>
<feComposite in2="hardAlpha" operator="out"/>
<feColorMatrix type="matrix" values="0 0 0 0 0.214421 0 0 0 0 0.177604 0 0 0 0 0.739062 0 0 0 1 0"/>
<feBlend mode="normal" in2="BackgroundImageFix" result="effect1_dropShadow_4_136"/>
<feBlend mode="normal" in="SourceGraphic" in2="effect1_dropShadow_4_136" result="shape"/>
</filter>
</defs>
</svg>
